<svg xmlns="http://www.w3.org/2000/svg" version="1.1" xmlns:xlink="http://www.w3.org/1999/xlink" xmlns:svgjs="http://svgjs.com/svgjs" width="1000" height="500" preserveAspectRatio="none" viewBox="0 0 1000 500"><g mask="url(&quot;#SvgjsMask1957&quot;)" fill="none"><rect width="1000" height="500" x="0" y="0" fill="rgba(227, 227, 227, 1)"></rect><path d="M 0,319 C 22.4,274.4 67.2,83.8 112,96 C 156.8,108.2 179.2,387.4 224,380 C 268.8,372.6 291.2,72.6 336,59 C 380.8,45.4 403.2,294.6 448,312 C 492.8,329.4 515.2,147.2 560,146 C 604.8,144.8 627.2,328.8 672,306 C 716.8,283.2 739.2,38.4 784,32 C 828.8,25.6 852.8,251.6 896,274 C 939.2,296.4 979.2,170 1000,144L1000 500L0 500z" fill="rgba(212, 212, 212, 1)"></path><path d="M 0,345 C 100,276.4 300,-27.6 500,2 C 700,31.6 900,394.8 1000,493L1000 500L0 500z" fill="rgba(255, 255, 255, 0.31)"></path><path d="M 0,42 C 50,114.8 150,388.6 250,406 C 350,423.4 400,151 500,129 C 600,107 650,284.2 750,296 C 850,307.8 950,209.6 1000,188L1000 500L0 500z" fill="rgba(87, 87, 87, 0.36)"></path><path d="M 0,43 C 50,95.2 150,279.8 250,304 C 350,328.2 400,157.6 500,164 C 600,170.4 650,327.4 750,336 C 850,344.6 950,232.8 1000,207L1000 500L0 500z" fill="rgba(125, 124, 124, 0.26)"></path><path d="M 0,351 C 66.8,313.8 200.4,177.6 334,165 C 467.6,152.4 534.8,319.6 668,288 C 801.2,256.4 933.6,63.2 1000,7L1000 500L0 500z" fill="rgba(255, 255, 255, 1)"></path></g><defs><mask id="SvgjsMask1957"><rect width="1000" height="500" fill="#ffffff"></rect></mask></defs></svg>