<svg xmlns="http://www.w3.org/2000/svg" version="1.1" xmlns:xlink="http://www.w3.org/1999/xlink" xmlns:svgjs="http://svgjs.com/svgjs" width="1000" height="500" preserveAspectRatio="none" viewBox="0 0 1000 500"><g mask="url(&quot;#SvgjsMask1999&quot;)" fill="none"><rect width="1000" height="500" x="0" y="0" fill="rgba(227, 227, 227, 1)"></rect><path d="M 0,488 C 22.4,406.4 67.2,120.2 112,80 C 156.8,39.8 179.2,276.2 224,287 C 268.8,297.8 291.2,95.8 336,134 C 380.8,172.2 403.2,456.6 448,478 C 492.8,499.4 515.2,274 560,241 C 604.8,208 627.2,359 672,313 C 716.8,267 739.2,-1.6 784,11 C 828.8,23.6 852.8,352.6 896,376 C 939.2,399.4 979.2,177.6 1000,128L1000 500L0 500z" fill="rgba(212, 212, 212, 1)"></path><path d="M 0,255 C 100,206.6 300,-7.2 500,13 C 700,33.2 900,287.4 1000,356L1000 500L0 500z" fill="rgba(255, 255, 255, 0.31)"></path><path d="M 0,269 C 50,221.6 150,33.4 250,32 C 350,30.6 400,248.6 500,262 C 600,275.4 650,77.2 750,99 C 850,120.8 950,316.6 1000,371L1000 500L0 500z" fill="rgba(87, 87, 87, 0.36)"></path><path d="M 0,188 C 50,201 150,245.6 250,253 C 350,260.4 400,198 500,225 C 600,252 650,383.4 750,388 C 850,392.6 950,276 1000,248L1000 500L0 500z" fill="rgba(125, 124, 124, 0.26)"></path><path d="M 0,298 C 66.8,273.6 200.4,183 334,176 C 467.6,169 534.8,251.4 668,263 C 801.2,274.6 933.6,239.8 1000,234L1000 500L0 500z" fill="rgba(255, 255, 255, 1)"></path></g><defs><mask id="SvgjsMask1999"><rect width="1000" height="500" fill="#ffffff"></rect></mask></defs></svg>