<svg xmlns="http://www.w3.org/2000/svg" version="1.1" xmlns:xlink="http://www.w3.org/1999/xlink" xmlns:svgjs="http://svgjs.com/svgjs" width="1000" height="500" preserveAspectRatio="none" viewBox="0 0 1000 500"><g mask="url(&quot;#SvgjsMask2393&quot;)" fill="none"><rect width="1000" height="500" x="0" y="0" fill="rgba(229, 229, 229, 1)"></rect><path d="M 0,61 C 50,143.6 150,482.2 250,474 C 350,465.8 400,62.6 500,20 C 600,-22.6 650,236 750,261 C 850,286 950,168.2 1000,145L1000 500L0 500z" fill="rgba(212, 212, 212, 0.57)"></path><path d="M 0,271 C 66.8,261.8 200.4,186.4 334,225 C 467.6,263.6 534.8,471.2 668,464 C 801.2,456.8 933.6,244 1000,189L1000 500L0 500z" fill="rgba(255, 255, 255, 0.73)"></path><path d="M 0,371 C 50,323.2 150,126.6 250,132 C 350,137.4 400,377.4 500,398 C 600,418.6 650,250.2 750,235 C 850,219.8 950,304.6 1000,322L1000 500L0 500z" fill="rgba(87, 87, 87, 0.26)"></path><path d="M 0,302 C 50,288.4 150,240.2 250,234 C 350,227.8 400,294.2 500,271 C 600,247.8 650,88.4 750,118 C 850,147.6 950,358.8 1000,419L1000 500L0 500z" fill="rgba(255, 255, 255, 1)"></path><path d="M 0,1 C 50,60.6 150,294.8 250,299 C 350,303.2 400,12.4 500,22 C 600,31.6 650,349.2 750,347 C 850,344.8 950,78.2 1000,11L1000 500L0 500z" fill="rgba(255, 255, 255, 0.7)"></path></g><defs><mask id="SvgjsMask2393"><rect width="1000" height="500" fill="#ffffff"></rect></mask></defs></svg>