<svg xmlns="http://www.w3.org/2000/svg" version="1.1" xmlns:xlink="http://www.w3.org/1999/xlink" xmlns:svgjs="http://svgjs.com/svgjs" width="800" height="800" preserveAspectRatio="none" viewBox="0 0 800 800"><g mask="url(&quot;#SvgjsMask1349&quot;)" fill="none"><rect width="800" height="800" x="0" y="0" fill="rgba(237, 237, 237, 1)"></rect><path d="M 0,521 C 80,460.6 240,193 400,219 C 560,245 720,564.6 800,651L800 800L0 800z" fill="rgba(214, 214, 214, 1)"></path><path d="M 0,148 C 53.4,267.2 160.2,725.4 267,744 C 373.8,762.6 427.4,297.2 534,241 C 640.6,184.8 746.8,418.6 800,463L800 800L0 800z" fill="rgba(255, 255, 255, 0.73)"></path><path d="M 0,521 C 53.4,425 160.2,13.4 267,41 C 373.8,68.6 427.4,649.6 534,659 C 640.6,668.4 746.8,202.2 800,88L800 800L0 800z" fill="rgba(183, 183, 183, 0.45)"></path><path d="M 0,438 C 80,428 240,336.8 400,388 C 560,439.2 720,632.8 800,694L800 800L0 800z" fill="rgba(191, 191, 191, 1)"></path></g><defs><mask id="SvgjsMask1349"><rect width="800" height="800" fill="#ffffff"></rect></mask></defs></svg>