<svg xmlns="http://www.w3.org/2000/svg" version="1.1" xmlns:xlink="http://www.w3.org/1999/xlink" xmlns:svgjs="http://svgjs.com/svgjs" width="1000" height="500" preserveAspectRatio="none" viewBox="0 0 1000 500"><g mask="url(&quot;#SvgjsMask1987&quot;)" fill="none"><rect width="1000" height="500" x="0" y="0" fill="rgba(227, 227, 227, 1)"></rect><path d="M 0,336 C 22.4,275 67.2,1.8 112,31 C 156.8,60.2 179.2,466.2 224,482 C 268.8,497.8 291.2,138.8 336,110 C 380.8,81.2 403.2,312.2 448,338 C 492.8,363.8 515.2,233.4 560,239 C 604.8,244.6 627.2,384.8 672,366 C 716.8,347.2 739.2,122.6 784,145 C 828.8,167.4 852.8,478.8 896,478 C 939.2,477.2 979.2,208.4 1000,141L1000 500L0 500z" fill="rgba(212, 212, 212, 1)"></path><path d="M 0,390 C 100,359.8 300,240.6 500,239 C 700,237.4 900,353.4 1000,382L1000 500L0 500z" fill="rgba(255, 255, 255, 0.31)"></path><path d="M 0,492 C 50,429.8 150,215.4 250,181 C 350,146.6 400,322.4 500,320 C 600,317.6 650,158.6 750,169 C 850,179.4 950,331.4 1000,372L1000 500L0 500z" fill="rgba(87, 87, 87, 0.36)"></path><path d="M 0,103 C 50,160.2 150,378.2 250,389 C 350,399.8 400,136.6 500,157 C 600,177.4 650,504.6 750,491 C 850,477.4 950,169.4 1000,89L1000 500L0 500z" fill="rgba(125, 124, 124, 0.26)"></path><path d="M 0,149 C 66.8,215.6 200.4,503.8 334,482 C 467.6,460.2 534.8,41 668,40 C 801.2,39 933.6,389.6 1000,477L1000 500L0 500z" fill="rgba(255, 255, 255, 1)"></path></g><defs><mask id="SvgjsMask1987"><rect width="1000" height="500" fill="#ffffff"></rect></mask></defs></svg>