<svg xmlns="http://www.w3.org/2000/svg" version="1.1" xmlns:xlink="http://www.w3.org/1999/xlink" xmlns:svgjs="http://svgjs.com/svgjs" width="800" height="800" preserveAspectRatio="none" viewBox="0 0 800 800"><g mask="url(&quot;#SvgjsMask1350&quot;)" fill="none"><rect width="800" height="800" x="0" y="0" fill="rgba(237, 237, 237, 1)"></rect><path d="M 0,107 C 80,226 240,668.2 400,702 C 560,735.8 720,361.2 800,276L800 800L0 800z" fill="rgba(214, 214, 214, 1)"></path><path d="M 0,671 C 53.4,549.6 160.2,52.4 267,64 C 373.8,75.6 427.4,675.6 534,729 C 640.6,782.4 746.8,410.6 800,331L800 800L0 800z" fill="rgba(255, 255, 255, 0.73)"></path><path d="M 0,381 C 53.4,453.4 160.2,744.4 267,743 C 373.8,741.6 427.4,405 534,374 C 640.6,343 746.8,545.2 800,588L800 800L0 800z" fill="rgba(183, 183, 183, 0.45)"></path><path d="M 0,345 C 80,362.4 240,430.2 400,432 C 560,433.8 720,369.6 800,354L800 800L0 800z" fill="rgba(191, 191, 191, 1)"></path></g><defs><mask id="SvgjsMask1350"><rect width="800" height="800" fill="#ffffff"></rect></mask></defs></svg>