<svg xmlns="http://www.w3.org/2000/svg" version="1.1" xmlns:xlink="http://www.w3.org/1999/xlink" xmlns:svgjs="http://svgjs.com/svgjs" width="800" height="800" preserveAspectRatio="none" viewBox="0 0 800 800"><g mask="url(&quot;#SvgjsMask1355&quot;)" fill="none"><rect width="800" height="800" x="0" y="0" fill="rgba(237, 237, 237, 1)"></rect><path d="M 0,213 C 80,273 240,500.8 400,513 C 560,525.2 720,321.8 800,274L800 800L0 800z" fill="rgba(214, 214, 214, 1)"></path><path d="M 0,620 C 53.4,558.6 160.2,349.8 267,313 C 373.8,276.2 427.4,491.8 534,436 C 640.6,380.2 746.8,114.4 800,34L800 800L0 800z" fill="rgba(255, 255, 255, 0.73)"></path><path d="M 0,365 C 53.4,400 160.2,551 267,540 C 373.8,529 427.4,326 534,310 C 640.6,294 746.8,430 800,460L800 800L0 800z" fill="rgba(183, 183, 183, 0.45)"></path><path d="M 0,329 C 80,375.6 240,573.2 400,562 C 560,550.8 720,330.8 800,273L800 800L0 800z" fill="rgba(191, 191, 191, 1)"></path></g><defs><mask id="SvgjsMask1355"><rect width="800" height="800" fill="#ffffff"></rect></mask></defs></svg>