<svg xmlns="http://www.w3.org/2000/svg" version="1.1" xmlns:xlink="http://www.w3.org/1999/xlink" xmlns:svgjs="http://svgjs.com/svgjs" width="800" height="800" preserveAspectRatio="none" viewBox="0 0 800 800"><g mask="url(&quot;#SvgjsMask1352&quot;)" fill="none"><rect width="800" height="800" x="0" y="0" fill="rgba(237, 237, 237, 1)"></rect><path d="M 0,365 C 80,405.8 240,569 400,569 C 560,569 720,405.8 800,365L800 800L0 800z" fill="rgba(214, 214, 214, 1)"></path><path d="M 0,24 C 53.4,152.2 160.2,650.4 267,665 C 373.8,679.6 427.4,111.8 534,97 C 640.6,82.2 746.8,492.2 800,591L800 800L0 800z" fill="rgba(255, 255, 255, 0.73)"></path><path d="M 0,773 C 53.4,650.6 160.2,228 267,161 C 373.8,94 427.4,435.6 534,438 C 640.6,440.4 746.8,226 800,173L800 800L0 800z" fill="rgba(183, 183, 183, 0.45)"></path><path d="M 0,277 C 80,325.8 240,573.6 400,521 C 560,468.4 720,115.4 800,14L800 800L0 800z" fill="rgba(191, 191, 191, 1)"></path></g><defs><mask id="SvgjsMask1352"><rect width="800" height="800" fill="#ffffff"></rect></mask></defs></svg>