<svg xmlns="http://www.w3.org/2000/svg" version="1.1" xmlns:xlink="http://www.w3.org/1999/xlink" xmlns:svgjs="http://svgjs.com/svgjs" width="800" height="800" preserveAspectRatio="none" viewBox="0 0 800 800"><g mask="url(&quot;#SvgjsMask1337&quot;)" fill="none"><rect width="800" height="800" x="0" y="0" fill="rgba(237, 237, 237, 1)"></rect><path d="M 0,259 C 80,294.6 240,467.6 400,437 C 560,406.4 720,172.2 800,106L800 800L0 800z" fill="rgba(214, 214, 214, 1)"></path><path d="M 0,345 C 53.4,392.6 160.2,648 267,583 C 373.8,518 427.4,42.4 534,20 C 640.6,-2.4 746.8,380.8 800,471L800 800L0 800z" fill="rgba(255, 255, 255, 0.73)"></path><path d="M 0,699 C 53.4,563.4 160.2,19.4 267,21 C 373.8,22.6 427.4,652.2 534,707 C 640.6,761.8 746.8,377.4 800,295L800 800L0 800z" fill="rgba(183, 183, 183, 0.45)"></path><path d="M 0,528 C 80,471.2 240,198.8 400,244 C 560,289.2 720,652 800,754L800 800L0 800z" fill="rgba(191, 191, 191, 1)"></path></g><defs><mask id="SvgjsMask1337"><rect width="800" height="800" fill="#ffffff"></rect></mask></defs></svg>