<svg xmlns="http://www.w3.org/2000/svg" version="1.1" xmlns:xlink="http://www.w3.org/1999/xlink" xmlns:svgjs="http://svgjs.com/svgjs" width="1000" height="500" preserveAspectRatio="none" viewBox="0 0 1000 500"><g mask="url(&quot;#SvgjsMask2002&quot;)" fill="none"><rect width="1000" height="500" x="0" y="0" fill="rgba(227, 227, 227, 1)"></rect><path d="M 0,193 C 22.4,219.8 67.2,335.4 112,327 C 156.8,318.6 179.2,144.2 224,151 C 268.8,157.8 291.2,358.2 336,361 C 380.8,363.8 403.2,162.4 448,165 C 492.8,167.6 515.2,398.4 560,374 C 604.8,349.6 627.2,55.6 672,43 C 716.8,30.4 739.2,274 784,311 C 828.8,348 852.8,198.6 896,228 C 939.2,257.4 979.2,412 1000,458L1000 500L0 500z" fill="rgba(212, 212, 212, 1)"></path><path d="M 0,218 C 100,271.2 300,499.8 500,484 C 700,468.2 900,208 1000,139L1000 500L0 500z" fill="rgba(255, 255, 255, 0.31)"></path><path d="M 0,31 C 50,104.8 150,361 250,400 C 350,439 400,217.2 500,226 C 600,234.8 650,471.2 750,444 C 850,416.8 950,160.8 1000,90L1000 500L0 500z" fill="rgba(87, 87, 87, 0.36)"></path><path d="M 0,42 C 50,117.6 150,411.2 250,420 C 350,428.8 400,91.6 500,86 C 600,80.4 650,359.4 750,392 C 850,424.6 950,277.6 1000,249L1000 500L0 500z" fill="rgba(125, 124, 124, 0.26)"></path><path d="M 0,338 C 66.8,288.2 200.4,104.4 334,89 C 467.6,73.6 534.8,276.6 668,261 C 801.2,245.4 933.6,61 1000,11L1000 500L0 500z" fill="rgba(255, 255, 255, 1)"></path></g><defs><mask id="SvgjsMask2002"><rect width="1000" height="500" fill="#ffffff"></rect></mask></defs></svg>