<svg xmlns="http://www.w3.org/2000/svg" version="1.1" xmlns:xlink="http://www.w3.org/1999/xlink" xmlns:svgjs="http://svgjs.com/svgjs" width="1000" height="500" preserveAspectRatio="none" viewBox="0 0 1000 500"><g mask="url(&quot;#SvgjsMask2387&quot;)" fill="none"><rect width="1000" height="500" x="0" y="0" fill="rgba(229, 229, 229, 1)"></rect><path d="M 0,273 C 50,253 150,170.2 250,173 C 350,175.8 400,312 500,287 C 600,262 650,44.6 750,48 C 850,51.4 950,252.8 1000,304L1000 500L0 500z" fill="rgba(212, 212, 212, 0.57)"></path><path d="M 0,286 C 66.8,242.8 200.4,58.6 334,70 C 467.6,81.4 534.8,349.6 668,343 C 801.2,336.4 933.6,98.2 1000,37L1000 500L0 500z" fill="rgba(255, 255, 255, 0.73)"></path><path d="M 0,166 C 50,223.6 150,474.8 250,454 C 350,433.2 400,57 500,62 C 600,67 650,481.4 750,479 C 850,476.6 950,135.8 1000,50L1000 500L0 500z" fill="rgba(87, 87, 87, 0.26)"></path><path d="M 0,315 C 50,299.2 150,247 250,236 C 350,225 400,260.6 500,260 C 600,259.4 650,227.4 750,233 C 850,238.6 950,277 1000,288L1000 500L0 500z" fill="rgba(255, 255, 255, 1)"></path><path d="M 0,433 C 50,380.2 150,177.6 250,169 C 350,160.4 400,387.4 500,390 C 600,392.6 650,194.8 750,182 C 850,169.2 950,297.2 1000,326L1000 500L0 500z" fill="rgba(255, 255, 255, 0.7)"></path></g><defs><mask id="SvgjsMask2387"><rect width="1000" height="500" fill="#ffffff"></rect></mask></defs></svg>