<svg xmlns="http://www.w3.org/2000/svg" version="1.1" xmlns:xlink="http://www.w3.org/1999/xlink" xmlns:svgjs="http://svgjs.com/svgjs" width="1000" height="500" preserveAspectRatio="none" viewBox="0 0 1000 500"><g mask="url(&quot;#SvgjsMask2055&quot;)" fill="none"><rect width="1000" height="500" x="0" y="0" fill="rgba(255, 255, 255, 1)"></rect><path d="M 0,306 C 22.4,283 67.2,170 112,191 C 156.8,212 179.2,405.8 224,411 C 268.8,416.2 291.2,223.2 336,217 C 380.8,210.8 403.2,385 448,380 C 492.8,375 515.2,200.8 560,192 C 604.8,183.2 627.2,342 672,336 C 716.8,330 739.2,158.2 784,162 C 828.8,165.8 852.8,346 896,355 C 939.2,364 979.2,236.6 1000,207L1000 500L0 500z" fill="rgba(212, 212, 212, 1)"></path><path d="M 0,468 C 100,392 300,125 500,88 C 700,51 900,244 1000,283L1000 500L0 500z" fill="rgba(255, 255, 255, 0.31)"></path><path d="M 0,211 C 50,240.6 150,384 250,359 C 350,334 400,80.6 500,86 C 600,91.4 650,400.2 750,386 C 850,371.8 950,89.2 1000,15L1000 500L0 500z" fill="rgba(87, 87, 87, 0.26)"></path><path d="M 0,176 C 50,198 150,312 250,286 C 350,260 400,15 500,46 C 600,77 650,438.6 750,441 C 850,443.4 950,134.6 1000,58L1000 500L0 500z" fill="rgba(125, 124, 124, 0.19)"></path><path d="M 0,101 C 66.8,165.4 200.4,434.8 334,423 C 467.6,411.2 534.8,62.2 668,42 C 801.2,21.8 933.6,266 1000,322L1000 500L0 500z" fill="rgba(237, 237, 237, 1)"></path></g><defs><mask id="SvgjsMask2055"><rect width="1000" height="500" fill="#ffffff"></rect></mask></defs></svg>