<svg xmlns="http://www.w3.org/2000/svg" version="1.1" xmlns:xlink="http://www.w3.org/1999/xlink" xmlns:svgjs="http://svgjs.com/svgjs" width="1000" height="500" preserveAspectRatio="none" viewBox="0 0 1000 500"><g mask="url(&quot;#SvgjsMask2385&quot;)" fill="none"><rect width="1000" height="500" x="0" y="0" fill="rgba(229, 229, 229, 1)"></rect><path d="M 0,225 C 50,248.4 150,353.6 250,342 C 350,330.4 400,176.6 500,167 C 600,157.4 650,306.8 750,294 C 850,281.2 950,141.2 1000,103L1000 500L0 500z" fill="rgba(212, 212, 212, 0.57)"></path><path d="M 0,380 C 66.8,346.8 200.4,207.6 334,214 C 467.6,220.4 534.8,442.2 668,412 C 801.2,381.8 933.6,132.8 1000,63L1000 500L0 500z" fill="rgba(255, 255, 255, 0.73)"></path><path d="M 0,81 C 50,132.6 150,331.6 250,339 C 350,346.4 400,86.2 500,118 C 600,149.8 650,486.6 750,498 C 850,509.4 950,239.6 1000,175L1000 500L0 500z" fill="rgba(87, 87, 87, 0.26)"></path><path d="M 0,323 C 50,281.2 150,121 250,114 C 350,107 400,274.6 500,288 C 600,301.4 650,139.8 750,181 C 850,222.2 950,431.4 1000,494L1000 500L0 500z" fill="rgba(255, 255, 255, 1)"></path><path d="M 0,381 C 50,307 150,-5.8 250,11 C 350,27.8 400,438.6 500,465 C 600,491.4 650,170 750,143 C 850,116 950,292.6 1000,330L1000 500L0 500z" fill="rgba(255, 255, 255, 0.7)"></path></g><defs><mask id="SvgjsMask2385"><rect width="1000" height="500" fill="#ffffff"></rect></mask></defs></svg>