<svg xmlns="http://www.w3.org/2000/svg" version="1.1" xmlns:xlink="http://www.w3.org/1999/xlink" xmlns:svgjs="http://svgjs.com/svgjs" width="800" height="800" preserveAspectRatio="none" viewBox="0 0 800 800"><g mask="url(&quot;#SvgjsMask1456&quot;)" fill="none"><rect width="800" height="800" x="0" y="0" fill="rgba(237, 237, 237, 1)"></rect><path d="M 0,523 C 80,430.4 240,4.6 400,60 C 560,115.4 720,652 800,800L800 800L0 800z" fill="rgba(214, 214, 214, 1)"></path><path d="M 0,399 C 53.4,405.8 160.2,481.8 267,433 C 373.8,384.2 427.4,123.2 534,155 C 640.6,186.8 746.8,504.6 800,592L800 800L0 800z" fill="rgba(255, 255, 255, 0.73)"></path><path d="M 0,221 C 53.4,280.8 160.2,485.6 267,520 C 373.8,554.4 427.4,394 534,393 C 640.6,392 746.8,490.6 800,515L800 800L0 800z" fill="rgba(183, 183, 183, 0.45)"></path><path d="M 0,291 C 80,363.2 240,686.4 400,652 C 560,617.6 720,225.6 800,119L800 800L0 800z" fill="rgba(191, 191, 191, 1)"></path></g><defs><mask id="SvgjsMask1456"><rect width="800" height="800" fill="#ffffff"></rect></mask></defs></svg>