<svg xmlns="http://www.w3.org/2000/svg" version="1.1" xmlns:xlink="http://www.w3.org/1999/xlink" xmlns:svgjs="http://svgjs.com/svgjs" width="800" height="800" preserveAspectRatio="none" viewBox="0 0 800 800"><g mask="url(&quot;#SvgjsMask1326&quot;)" fill="none"><rect width="800" height="800" x="0" y="0" fill="rgba(237, 237, 237, 1)"></rect><path d="M 0,692 C 80,609.8 240,317 400,281 C 560,245 720,465.8 800,512L800 800L0 800z" fill="rgba(214, 214, 214, 1)"></path><path d="M 0,650 C 53.4,530.6 160.2,94.2 267,53 C 373.8,11.8 427.4,414.4 534,444 C 640.6,473.6 746.8,249.6 800,201L800 800L0 800z" fill="rgba(255, 255, 255, 0.73)"></path><path d="M 0,156 C 53.4,281.8 160.2,811.6 267,785 C 373.8,758.4 427.4,41.6 534,23 C 640.6,4.4 746.8,558.2 800,692L800 800L0 800z" fill="rgba(183, 183, 183, 0.45)"></path><path d="M 0,423 C 53.4,390.2 160.2,227.2 267,259 C 373.8,290.8 427.4,607.2 534,582 C 640.6,556.8 746.8,222.8 800,133L800 800L0 800z" fill="rgba(191, 191, 191, 1)"></path></g><defs><mask id="SvgjsMask1326"><rect width="800" height="800" fill="#ffffff"></rect></mask></defs></svg>