<svg xmlns="http://www.w3.org/2000/svg" version="1.1" xmlns:xlink="http://www.w3.org/1999/xlink" xmlns:svgjs="http://svgjs.com/svgjs" width="1000" height="500" preserveAspectRatio="none" viewBox="0 0 1000 500"><g mask="url(&quot;#SvgjsMask1107&quot;)" fill="none"><rect width="1000" height="500" x="0" y="0" fill="rgba(63, 63, 63, 1)"></rect><path d="M 0,328 C 50,272 150,20.8 250,48 C 350,75.2 400,436.8 500,464 C 600,491.2 650,202 750,184 C 850,166 950,336 1000,374L1000 500L0 500z" fill="rgba(255, 255, 255, 0.31)"></path><path d="M 0,120 C 50,178.8 150,422.6 250,414 C 350,405.4 400,68.8 500,77 C 600,85.2 650,451.4 750,455 C 850,458.6 950,167 1000,95L1000 500L0 500z" fill="rgba(87, 87, 87, 0.36)"></path><path d="M 0,184 C 50,230.8 150,420 250,418 C 350,416 400,201.8 500,174 C 600,146.2 650,311.6 750,279 C 850,246.4 950,64.6 1000,11L1000 500L0 500z" fill="rgba(125, 124, 124, 0.26)"></path><path d="M 0,120 C 66.8,183.4 200.4,419.2 334,437 C 467.6,454.8 534.8,232.6 668,209 C 801.2,185.4 933.6,297 1000,319L1000 500L0 500z" fill="rgba(0, 0, 0, 1)"></path></g><defs><mask id="SvgjsMask1107"><rect width="1000" height="500" fill="#ffffff"></rect></mask></defs></svg>