<svg xmlns="http://www.w3.org/2000/svg" version="1.1" xmlns:xlink="http://www.w3.org/1999/xlink" xmlns:svgjs="http://svgjs.com/svgjs" width="1000" height="500" preserveAspectRatio="none" viewBox="0 0 1000 500"><g mask="url(&quot;#SvgjsMask1288&quot;)" fill="none"><rect width="1000" height="500" x="0" y="0" fill="rgba(63, 63, 63, 1)"></rect><path d="M 0,288 C 28.6,260 85.8,109.2 143,148 C 200.2,186.8 228.8,477.8 286,482 C 343.2,486.2 371.8,192 429,169 C 486.2,146 514.8,354.8 572,367 C 629.2,379.2 657.8,224.2 715,230 C 772.2,235.8 801,428.2 858,396 C 915,363.8 971.6,134.4 1000,69L1000 500L0 500z" fill="rgba(0, 0, 0, 1)"></path><path d="M 0,313 C 50,260.4 150,45 250,50 C 350,55 400,325.4 500,338 C 600,350.6 650,104.4 750,113 C 850,121.6 950,327.4 1000,381L1000 500L0 500z" fill="rgba(255, 255, 255, 0.31)"></path><path d="M 0,194 C 50,253.6 150,514.4 250,492 C 350,469.6 400,127.2 500,82 C 600,36.8 650,246.6 750,266 C 850,285.4 950,196.4 1000,179L1000 500L0 500z" fill="rgba(87, 87, 87, 0.36)"></path><path d="M 0,248 C 50,298.2 150,513.2 250,499 C 350,484.8 400,198 500,177 C 600,156 650,389.8 750,394 C 850,398.2 950,237.2 1000,198L1000 500L0 500z" fill="rgba(125, 124, 124, 0.26)"></path><path d="M 0,336 C 66.8,311 200.4,198.6 334,211 C 467.6,223.4 534.8,408 668,398 C 801.2,388 933.6,208.4 1000,161L1000 500L0 500z" fill="rgba(0, 0, 0, 1)"></path></g><defs><mask id="SvgjsMask1288"><rect width="1000" height="500" fill="#ffffff"></rect></mask></defs></svg>