<svg xmlns="http://www.w3.org/2000/svg" version="1.1" xmlns:xlink="http://www.w3.org/1999/xlink" xmlns:svgjs="http://svgjs.com/svgjs" width="1000" height="500" preserveAspectRatio="none" viewBox="0 0 1000 500"><g mask="url(&quot;#SvgjsMask1293&quot;)" fill="none"><rect width="1000" height="500" x="0" y="0" fill="rgba(63, 63, 63, 1)"></rect><path d="M 0,339 C 28.6,317.2 85.8,235.4 143,230 C 200.2,224.6 228.8,316.8 286,312 C 343.2,307.2 371.8,189.4 429,206 C 486.2,222.6 514.8,414.6 572,395 C 629.2,375.4 657.8,121.2 715,108 C 772.2,94.8 801,349.8 858,329 C 915,308.2 971.6,69 1000,4L1000 500L0 500z" fill="rgba(0, 0, 0, 1)"></path><path d="M 0,138 C 50,194.6 150,410.6 250,421 C 350,431.4 400,216 500,190 C 600,164 650,298.8 750,291 C 850,283.2 950,179 1000,151L1000 500L0 500z" fill="rgba(255, 255, 255, 0.31)"></path><path d="M 0,37 C 50,93.2 150,287.8 250,318 C 350,348.2 400,164.8 500,188 C 600,211.2 650,460.6 750,434 C 850,407.4 950,130.8 1000,55L1000 500L0 500z" fill="rgba(87, 87, 87, 0.36)"></path><path d="M 0,97 C 50,142.8 150,332.8 250,326 C 350,319.2 400,62.2 500,63 C 600,63.8 650,332.2 750,330 C 850,327.8 950,107.6 1000,52L1000 500L0 500z" fill="rgba(125, 124, 124, 0.26)"></path><path d="M 0,274 C 66.8,253.6 200.4,155.4 334,172 C 467.6,188.6 534.8,390.2 668,357 C 801.2,323.8 933.6,76.2 1000,6L1000 500L0 500z" fill="rgba(0, 0, 0, 1)"></path></g><defs><mask id="SvgjsMask1293"><rect width="1000" height="500" fill="#ffffff"></rect></mask></defs></svg>