<svg xmlns="http://www.w3.org/2000/svg" version="1.1" xmlns:xlink="http://www.w3.org/1999/xlink" xmlns:svgjs="http://svgjs.com/svgjs" width="1000" height="500" preserveAspectRatio="none" viewBox="0 0 1000 500"><g mask="url(&quot;#SvgjsMask1135&quot;)" fill="none"><rect width="1000" height="500" x="0" y="0" fill="rgba(63, 63, 63, 1)"></rect><path d="M 0,464 C 50,400.8 150,190 250,148 C 350,106 400,281.4 500,254 C 600,226.6 650,-37.6 750,11 C 850,59.6 950,399.8 1000,497L1000 500L0 500z" fill="rgba(255, 255, 255, 0.31)"></path><path d="M 0,101 C 50,145.2 150,299.6 250,322 C 350,344.4 400,190.2 500,213 C 600,235.8 650,474 750,436 C 850,398 950,105.6 1000,23L1000 500L0 500z" fill="rgba(87, 87, 87, 0.36)"></path><path d="M 0,345 C 50,296.2 150,97.4 250,101 C 350,104.6 400,353.6 500,363 C 600,372.4 650,156.8 750,148 C 850,139.2 950,284.8 1000,319L1000 500L0 500z" fill="rgba(125, 124, 124, 0.26)"></path><path d="M 0,106 C 66.8,177.2 200.4,446 334,462 C 467.6,478 534.8,186 668,186 C 801.2,186 933.6,406.8 1000,462L1000 500L0 500z" fill="rgba(0, 0, 0, 1)"></path></g><defs><mask id="SvgjsMask1135"><rect width="1000" height="500" fill="#ffffff"></rect></mask></defs></svg>