<svg xmlns="http://www.w3.org/2000/svg" version="1.1" xmlns:xlink="http://www.w3.org/1999/xlink" xmlns:svgjs="http://svgjs.com/svgjs" width="1000" height="500" preserveAspectRatio="none" viewBox="0 0 1000 500"><g mask="url(&quot;#SvgjsMask1122&quot;)" fill="none"><rect width="1000" height="500" x="0" y="0" fill="rgba(63, 63, 63, 1)"></rect><path d="M 0,13 C 50,64.4 150,242 250,270 C 350,298 400,116.8 500,153 C 600,189.2 650,460 750,451 C 850,442 950,176.6 1000,108L1000 500L0 500z" fill="rgba(255, 255, 255, 0.31)"></path><path d="M 0,480 C 50,403.8 150,132.6 250,99 C 350,65.4 400,325 500,312 C 600,299 650,19.2 750,34 C 850,48.8 950,315.6 1000,386L1000 500L0 500z" fill="rgba(87, 87, 87, 0.36)"></path><path d="M 0,104 C 50,167.2 150,419.8 250,420 C 350,420.2 400,89.4 500,105 C 600,120.6 650,509 750,498 C 850,487 950,139.6 1000,50L1000 500L0 500z" fill="rgba(125, 124, 124, 0.26)"></path><path d="M 0,411 C 66.8,363 200.4,158.2 334,171 C 467.6,183.8 534.8,463 668,475 C 801.2,487 933.6,279.8 1000,231L1000 500L0 500z" fill="rgba(0, 0, 0, 1)"></path></g><defs><mask id="SvgjsMask1122"><rect width="1000" height="500" fill="#ffffff"></rect></mask></defs></svg>