<svg xmlns="http://www.w3.org/2000/svg" version="1.1" xmlns:xlink="http://www.w3.org/1999/xlink" xmlns:svgjs="http://svgjs.com/svgjs" width="1000" height="500" preserveAspectRatio="none" viewBox="0 0 1000 500"><g mask="url(&quot;#SvgjsMask1127&quot;)" fill="none"><rect width="1000" height="500" x="0" y="0" fill="rgba(63, 63, 63, 1)"></rect><path d="M 0,78 C 50,117.4 150,290 250,275 C 350,260 400,-36.4 500,3 C 600,42.4 650,427.8 750,472 C 850,516.2 950,273.6 1000,224L1000 500L0 500z" fill="rgba(255, 255, 255, 0.31)"></path><path d="M 0,82 C 50,127.4 150,299 250,309 C 350,319 400,135.6 500,132 C 600,128.4 650,277.6 750,291 C 850,304.4 950,217.4 1000,199L1000 500L0 500z" fill="rgba(87, 87, 87, 0.36)"></path><path d="M 0,109 C 50,184 150,468.4 250,484 C 350,499.6 400,233.2 500,187 C 600,140.8 650,276.4 750,253 C 850,229.6 950,106.6 1000,70L1000 500L0 500z" fill="rgba(125, 124, 124, 0.26)"></path><path d="M 0,208 C 66.8,228.8 200.4,336.4 334,312 C 467.6,287.6 534.8,62.6 668,86 C 801.2,109.4 933.6,360.4 1000,429L1000 500L0 500z" fill="rgba(0, 0, 0, 1)"></path></g><defs><mask id="SvgjsMask1127"><rect width="1000" height="500" fill="#ffffff"></rect></mask></defs></svg>