<svg xmlns="http://www.w3.org/2000/svg" version="1.1" xmlns:xlink="http://www.w3.org/1999/xlink" xmlns:svgjs="http://svgjs.com/svgjs" width="1000" height="500" preserveAspectRatio="none" viewBox="0 0 1000 500"><g mask="url(&quot;#SvgjsMask1111&quot;)" fill="none"><rect width="1000" height="500" x="0" y="0" fill="rgba(63, 63, 63, 1)"></rect><path d="M 0,27 C 50,74.6 150,249.2 250,265 C 350,280.8 400,86.4 500,106 C 600,125.6 650,381.4 750,363 C 850,344.6 950,83.8 1000,14L1000 500L0 500z" fill="rgba(255, 255, 255, 0.31)"></path><path d="M 0,390 C 50,313 150,6.4 250,5 C 350,3.6 400,380.2 500,383 C 600,385.8 650,23 750,19 C 850,15 950,294.2 1000,363L1000 500L0 500z" fill="rgba(87, 87, 87, 0.36)"></path><path d="M 0,78 C 50,137 150,366.2 250,373 C 350,379.8 400,109 500,112 C 600,115 650,366 750,388 C 850,410 950,255.2 1000,222L1000 500L0 500z" fill="rgba(125, 124, 124, 0.26)"></path><path d="M 0,166 C 66.8,200.4 200.4,368.8 334,338 C 467.6,307.2 534.8,14 668,12 C 801.2,10 933.6,264.8 1000,328L1000 500L0 500z" fill="rgba(0, 0, 0, 1)"></path></g><defs><mask id="SvgjsMask1111"><rect width="1000" height="500" fill="#ffffff"></rect></mask></defs></svg>