<svg xmlns="http://www.w3.org/2000/svg" version="1.1" xmlns:xlink="http://www.w3.org/1999/xlink" xmlns:svgjs="http://svgjs.com/svgjs" width="1000" height="500" preserveAspectRatio="none" viewBox="0 0 1000 500"><g mask="url(&quot;#SvgjsMask1132&quot;)" fill="none"><rect width="1000" height="500" x="0" y="0" fill="rgba(63, 63, 63, 1)"></rect><path d="M 0,500 C 50,443.8 150,261.4 250,219 C 350,176.6 400,285.2 500,288 C 600,290.8 650,194 750,233 C 850,272 950,433 1000,483L1000 500L0 500z" fill="rgba(255, 255, 255, 0.31)"></path><path d="M 0,309 C 50,255.8 150,22.8 250,43 C 350,63.2 400,372.2 500,410 C 600,447.8 650,244.4 750,232 C 850,219.6 950,324.8 1000,348L1000 500L0 500z" fill="rgba(87, 87, 87, 0.36)"></path><path d="M 0,106 C 50,145 150,314.2 250,301 C 350,287.8 400,25.6 500,40 C 600,54.4 650,365.4 750,373 C 850,380.6 950,137 1000,78L1000 500L0 500z" fill="rgba(125, 124, 124, 0.26)"></path><path d="M 0,440 C 66.8,400 200.4,276.8 334,240 C 467.6,203.2 534.8,254.2 668,256 C 801.2,257.8 933.6,250.4 1000,249L1000 500L0 500z" fill="rgba(0, 0, 0, 1)"></path></g><defs><mask id="SvgjsMask1132"><rect width="1000" height="500" fill="#ffffff"></rect></mask></defs></svg>