<svg xmlns="http://www.w3.org/2000/svg" version="1.1" xmlns:xlink="http://www.w3.org/1999/xlink" xmlns:svgjs="http://svgjs.com/svgjs" width="1000" height="500" preserveAspectRatio="none" viewBox="0 0 1000 500"><g mask="url(&quot;#SvgjsMask1285&quot;)" fill="none"><rect width="1000" height="500" x="0" y="0" fill="rgba(63, 63, 63, 1)"></rect><path d="M 0,431 C 28.6,348.8 85.8,36 143,20 C 200.2,4 228.8,350 286,351 C 343.2,352 371.8,13 429,25 C 486.2,37 514.8,411.8 572,411 C 629.2,410.2 657.8,33.6 715,21 C 772.2,8.4 801,319.8 858,348 C 915,376.2 971.6,199.2 1000,162L1000 500L0 500z" fill="rgba(0, 0, 0, 1)"></path><path d="M 0,471 C 50,381 150,48.6 250,21 C 350,-6.6 400,301.6 500,333 C 600,364.4 650,176.2 750,178 C 850,179.8 950,309.2 1000,342L1000 500L0 500z" fill="rgba(255, 255, 255, 0.31)"></path><path d="M 0,41 C 50,109.6 150,372.6 250,384 C 350,395.4 400,92 500,98 C 600,104 650,385.8 750,414 C 850,442.2 950,274 1000,239L1000 500L0 500z" fill="rgba(87, 87, 87, 0.36)"></path><path d="M 0,226 C 50,242.2 150,333 250,307 C 350,281 400,89 500,96 C 600,103 650,315.4 750,342 C 850,368.6 950,251.6 1000,229L1000 500L0 500z" fill="rgba(125, 124, 124, 0.26)"></path><path d="M 0,380 C 66.8,341.6 200.4,186 334,188 C 467.6,190 534.8,424.6 668,390 C 801.2,355.4 933.6,90 1000,15L1000 500L0 500z" fill="rgba(0, 0, 0, 1)"></path></g><defs><mask id="SvgjsMask1285"><rect width="1000" height="500" fill="#ffffff"></rect></mask></defs></svg>